<svg xmlns="http://www.w3.org/2000/svg" width="1123.366" height="370.254" viewBox="0 0 1123.366 370.254">
  <g id="ondas-bottom" transform="translate(209.526 -619.99)" opacity="0.46">
    <path id="Caminho_17" data-name="Caminho 17" d="M1585.312,838.1s-70.863,10.241-115.766,50.418-77.2,49.63-155.192,71.688,230.03,14.18,230.03,14.18l98.472-26Z" transform="translate(-818.034 -118.066)" fill="#494ca2" opacity="0.48" style="mix-blend-mode: multiply;isolation: isolate"/>
    <path id="Caminho_19" data-name="Caminho 19" d="M1122.719,619.99s-32.443,114.752-145.095,144.688-225.733,0-225.733,0-138.075-29.673-345.259,82.191,246.573,60.659,246.573,60.659l486.844-3.939,59.871-141.8Z" transform="translate(-304.199)" fill="#8186d5" opacity="0.69" style="mix-blend-mode: multiply;isolation: isolate"/>
    <path id="Caminho_20" data-name="Caminho 20" d="M1021.68,705.5s-163.857-30.723-326.139,65.385S227.6,831.543,227.6,831.543s-78.777-6.3-141.8-32.3S-10.3,817.363-10.3,817.363v83.5l90.594,63.022L421.4,1018.245,858.61,996.188l131.558-63.022Z" transform="translate(-107.839 -43.757)" fill="#191a1f" opacity="0.66" style="mix-blend-mode: multiply;isolation: isolate"/>
    <path id="Caminho_21" data-name="Caminho 21" d="M-171.713,705.861s64.6,181.188,271.782,133.134,330.077,8.666,330.077,8.666l101.623,64.6L352.945,1036.726-125.234,989.46l-84.292-261.541Z" transform="translate(0 -46.482)" fill="#494ca2" opacity="0.72"/>
  </g>
</svg>
